<svg width="1362" height="296" viewBox="0 0 1362 296" fill="none" xmlns="http://www.w3.org/2000/svg">
<path fill-rule="evenodd" clip-rule="evenodd" d="M675.797 0.988339C754.246 -3.10178 840.193 8.88588 908.491 23.4941C975.704 37.8704 994.599 64.2071 1053 81.6686C1143.79 108.814 1300.55 118.873 1344.85 153.963C1387.68 187.891 1341.42 226.946 1269.62 253.25C1199.31 279.005 1076.93 286.507 964.216 293.402C867.693 299.306 768.287 293.49 667.621 290.072C568.872 286.719 468.972 287.093 377.97 273.496C280.319 258.905 142.041 241.37 133.342 210.243C123.076 173.508 0.136762 146.239 0.596075 109.658C1.05904 72.7863 72.4796 59.0319 135.621 28.7382C198.495 -1.42746 383.88 50.7528 505.283 44.5161C582.826 40.5325 598.304 5.02856 675.797 0.988339Z" fill="#0A84FF"/>
</svg>
